<svg xmlns="http://www.w3.org/2000/svg" viewBox="0 0 300 300" width="600" height="600" role="img" aria-label="סקראנצ'י">
  <rect width="300" height="300" fill="#f6f1ea"/>
  <ellipse cx="150" cy="238" rx="96" ry="16" fill="rgba(0,0,0,0.08)"/>
  <circle cx="250.5" cy="176.7" r="24" fill="#8f2d2d"/><circle cx="242.0" cy="198.4" r="24" fill="#e8a0a0"/><circle cx="229.0" cy="217.7" r="24" fill="#8f2d2d"/><circle cx="211.9" cy="233.6" r="24" fill="#e8a0a0"/><circle cx="191.8" cy="245.2" r="24" fill="#8f2d2d"/><circle cx="169.5" cy="252.2" r="24" fill="#e8a0a0"/><circle cx="146.3" cy="253.9" r="24" fill="#8f2d2d"/><circle cx="123.3" cy="250.5" r="24" fill="#e8a0a0"/><circle cx="101.6" cy="242.0" r="24" fill="#8f2d2d"/><circle cx="82.3" cy="229.0" r="24" fill="#e8a0a0"/><circle cx="66.4" cy="211.9" r="24" fill="#8f2d2d"/><circle cx="54.8" cy="191.8" r="24" fill="#e8a0a0"/><circle cx="47.8" cy="169.5" r="24" fill="#8f2d2d"/><circle cx="46.1" cy="146.3" r="24" fill="#e8a0a0"/><circle cx="49.5" cy="123.3" r="24" fill="#8f2d2d"/><circle cx="58.0" cy="101.6" r="24" fill="#e8a0a0"/><circle cx="71.0" cy="82.3" r="24" fill="#8f2d2d"/><circle cx="88.1" cy="66.4" r="24" fill="#e8a0a0"/><circle cx="108.2" cy="54.8" r="24" fill="#8f2d2d"/><circle cx="130.5" cy="47.8" r="24" fill="#e8a0a0"/><circle cx="153.7" cy="46.1" r="24" fill="#8f2d2d"/><circle cx="176.7" cy="49.5" r="24" fill="#e8a0a0"/><circle cx="198.4" cy="58.0" r="24" fill="#8f2d2d"/><circle cx="217.7" cy="71.0" r="24" fill="#e8a0a0"/><circle cx="233.6" cy="88.1" r="24" fill="#8f2d2d"/><circle cx="245.2" cy="108.2" r="24" fill="#e8a0a0"/><circle cx="252.2" cy="130.5" r="24" fill="#8f2d2d"/><circle cx="253.9" cy="153.7" r="24" fill="#e8a0a0"/>
  <circle cx="150" cy="150" r="96" fill="#b23a3a"/>
  <circle cx="125.0" cy="204.6" r="4" fill="#8f2d2d" opacity="0.85"/><circle cx="95.8" cy="200.4" r="6" fill="#e8a0a0" opacity="0.85"/><circle cx="67.5" cy="180.7" r="8" fill="#8f2d2d" opacity="0.85"/><circle cx="90.0" cy="147.8" r="4" fill="#e8a0a0" opacity="0.85"/><circle cx="82.7" cy="119.2" r="6" fill="#8f2d2d" opacity="0.85"/><circle cx="90.1" cy="85.5" r="8" fill="#e8a0a0" opacity="0.85"/><circle cx="129.1" cy="93.8" r="4" fill="#8f2d2d" opacity="0.85"/><circle cx="152.7" cy="76.0" r="6" fill="#e8a0a0" opacity="0.85"/><circle cx="186.6" cy="70.0" r="8" fill="#8f2d2d" opacity="0.85"/><circle cx="193.9" cy="109.2" r="4" fill="#e8a0a0" opacity="0.85"/><circle cx="219.4" cy="124.2" r="6" fill="#8f2d2d" opacity="0.85"/><circle cx="237.9" cy="153.2" r="8" fill="#e8a0a0" opacity="0.85"/><circle cx="204.6" cy="175.0" r="4" fill="#8f2d2d" opacity="0.85"/><circle cx="200.4" cy="204.2" r="6" fill="#e8a0a0" opacity="0.85"/><circle cx="180.7" cy="232.5" r="8" fill="#8f2d2d" opacity="0.85"/><circle cx="147.8" cy="210.0" r="4" fill="#e8a0a0" opacity="0.85"/>
  <circle cx="150" cy="150" r="40" fill="#f6f1ea"/>
  <circle cx="150" cy="150" r="40" fill="none" stroke="rgba(0,0,0,0.06)" stroke-width="2"/>
</svg>
